<svg width="182" height="42" viewBox="0 0 182 42" fill="none" xmlns="http://www.w3.org/2000/svg">
<path d="M33.8605 17.6266C33.8605 14.7592 34.7916 12.3977 36.4847 10.5423C38.2623 8.68688 40.4633 7.84351 43.2568 7.84351C45.627 7.84351 47.6586 8.5182 49.267 9.8676C50.8754 11.217 51.8912 12.9881 52.2298 15.1809H48.0819C47.574 12.8194 45.627 11.5543 43.0875 11.5543C39.7014 11.5543 37.7544 13.9158 37.7544 17.5423C37.7544 21.1688 39.7861 23.5303 43.0875 23.5303C45.627 23.5303 47.4893 22.2652 48.0819 19.9037H52.3991C52.0605 22.1809 51.1293 23.8676 49.4363 25.217C47.7433 26.4821 45.7963 27.2411 43.4261 27.2411C40.7172 27.2411 38.4316 26.3134 36.654 24.5423C34.7916 22.8556 33.8605 20.4941 33.8605 17.6266Z" fill="#1E396B"/>
<path d="M61.3721 27.3254C59.1712 27.3254 57.4782 26.6507 56.1237 25.2169C54.7693 23.7832 54.0921 22.1808 54.0921 20.0723C54.0921 17.9639 54.7693 16.3615 56.1237 14.9278C57.3935 13.494 59.1712 12.8193 61.3721 12.8193C63.573 12.8193 65.2661 13.494 66.6205 14.9278C67.8902 16.3615 68.6521 18.0483 68.6521 20.0723C68.6521 22.0964 67.9749 23.7832 66.6205 25.2169C65.2661 26.5663 63.4884 27.3254 61.3721 27.3254ZM57.9014 20.241C57.9014 21.4217 58.24 22.4338 58.8326 23.1085C59.5098 23.7832 60.3563 24.1205 61.3721 24.1205C62.3879 24.1205 63.2344 23.7832 63.9116 23.1085C64.5888 22.4338 64.8428 21.4217 64.8428 20.241C64.8428 19.0603 64.5042 18.0483 63.9116 17.3736C63.3191 16.6989 62.3879 16.3615 61.3721 16.3615C60.3563 16.3615 59.5098 16.6989 58.8326 17.3736C58.1554 17.9639 57.9014 18.976 57.9014 20.241Z" fill="#1E396B"/>
<path d="M71.1916 27.0724V13.3254H74.9163V27.0724H71.1916ZM73.054 11.47C72.3767 11.47 71.8688 11.3013 71.3609 10.8796C71.0223 10.4579 70.7684 9.95192 70.7684 9.19288C70.7684 8.51818 70.9377 8.01216 71.3609 7.50613C71.7842 7.08445 72.2921 6.91577 73.054 6.91577C73.8158 6.91577 74.2391 7.08445 74.747 7.50613C75.1702 8.01216 75.3395 8.51818 75.3395 9.19288C75.3395 9.86758 75.1702 10.3736 74.747 10.711C74.2391 11.3013 73.7312 11.47 73.054 11.47Z" fill="#1E396B"/>
<path d="M81.8577 13.2412V14.9279C82.5349 13.6628 83.9739 12.9038 86.0056 12.9038C89.2223 12.9038 91.0846 15.0122 91.0846 18.3857V26.9881H87.36V18.8074C87.36 16.952 86.5981 16.1086 84.9898 16.1086C83.1274 16.1086 82.1963 17.2894 82.1963 19.0604V26.9881H78.4716V13.2412H81.8577Z" fill="#1E396B"/>
<path d="M99.3805 22.5182L102.767 13.1567H106.66L101.073 26.9037H97.6028L92.1005 13.1567H96.0791L99.3805 22.5182Z" fill="#1E396B"/>
<path d="M120.628 21.1688H110.554C110.808 23.1086 112.078 24.1206 113.856 24.1206C115.041 24.1206 116.141 23.6146 116.48 22.6026H120.205C119.781 24.0363 119.02 25.1327 117.834 25.9761C116.649 26.9038 115.21 27.2411 113.602 27.2411C111.57 27.2411 109.877 26.5664 108.607 25.217C107.338 23.952 106.66 22.1809 106.66 19.9881C106.66 17.8797 107.338 16.2773 108.607 14.8435C109.793 13.4098 111.57 12.7351 113.602 12.7351C115.633 12.7351 117.242 13.4098 118.596 14.7592C119.781 16.1929 120.543 17.7953 120.543 19.9038V21.1688H120.628ZM110.554 18.47H116.903C116.649 16.952 115.464 15.8556 113.771 15.8556C112.078 15.8556 110.978 16.952 110.554 18.47Z" fill="#1E396B"/>
<path d="M122.152 22.5182H125.876C125.961 23.5302 126.638 24.3736 128.162 24.3736C129.601 24.3736 130.363 23.8676 130.363 23.1929C130.363 22.2652 129.178 22.0122 127.654 21.7591C126.892 21.5905 126.13 21.5061 125.368 21.2531C123.845 20.8314 122.66 19.5664 122.66 17.6266C122.66 16.3616 123.167 15.2652 124.183 14.4218C125.199 13.5784 126.553 13.1567 128.162 13.1567C130.024 13.1567 131.379 13.5784 132.394 14.5905C133.326 15.5182 133.833 16.6146 133.918 17.7953H130.278C130.193 16.8676 129.516 16.1085 128.162 16.1085C126.977 16.1085 126.215 16.6989 126.215 17.3736C126.215 18.3013 127.4 18.5543 128.924 18.8073C129.601 18.976 130.447 19.0604 131.209 19.3134C132.733 19.7351 133.918 21.0001 133.918 23.0242C133.918 24.2893 133.41 25.3857 132.394 26.1447C131.379 27.0724 129.94 27.3254 128.077 27.3254C124.353 27.3254 122.321 25.723 122.152 22.5182Z" fill="#1E396B"/>
<path d="M142.891 23.699V26.9038C142.468 26.9881 141.96 27.0725 141.113 27.0725C138.32 27.0725 136.796 25.6387 136.796 22.8556V16.0243H134.934V13.0725H136.796V9.69897H140.521V13.0725H142.807V16.0243H140.69V22.3496C140.69 23.2773 141.113 23.6146 142.129 23.6146H142.891V23.699Z" fill="#1E396B"/>
<path d="M144.584 23.193C144.584 20.7472 146.277 19.3134 149.917 18.8074L153.557 18.3014V18.0484C153.557 16.7833 152.795 16.0243 151.102 16.0243C149.579 16.0243 148.732 16.5303 148.563 17.711H144.923C145.092 16.446 145.6 15.2653 146.616 14.3375C147.547 13.4098 149.155 12.9038 151.187 12.9038C155.166 12.9038 157.197 14.7592 157.197 18.0484V24.5424C157.197 25.5544 157.367 26.3978 157.62 26.9881H154.065C154.065 26.9881 153.896 26.3134 153.896 25.4701C152.965 26.6508 151.526 27.3255 149.494 27.3255C146.277 27.3255 144.584 25.6387 144.584 23.193ZM153.557 20.7472L150.256 21.2532C148.817 21.5062 148.14 22.0122 148.14 22.94C148.14 23.8677 148.817 24.458 150.256 24.458C152.372 24.458 153.557 23.2773 153.557 21.4219V20.7472Z" fill="#1E396B"/>
<path d="M159.398 22.5182H163.123C163.207 23.5302 163.885 24.3736 165.408 24.3736C166.847 24.3736 167.609 23.8676 167.609 23.1929C167.609 22.2652 166.424 22.0122 164.9 21.7591C164.139 21.5905 163.377 21.5061 162.615 21.2531C161.091 20.8314 159.906 19.5664 159.906 17.6266C159.906 16.3616 160.414 15.2652 161.43 14.4218C162.446 13.4941 163.8 13.1567 165.408 13.1567C167.271 13.1567 168.625 13.5784 169.641 14.5905C170.572 15.5182 171.08 16.6146 171.165 17.7953H167.609C167.525 16.8676 166.847 16.1085 165.493 16.1085C164.308 16.1085 163.546 16.6989 163.546 17.3736C163.546 18.3013 164.731 18.5543 166.255 18.8073C166.932 18.976 167.779 19.0604 168.54 19.3134C170.064 19.7351 171.249 21.0001 171.249 23.0242C171.249 24.2893 170.741 25.3857 169.726 26.1447C168.71 27.0724 167.271 27.3254 165.408 27.3254C161.599 27.3254 159.652 25.723 159.398 22.5182Z" fill="#1E396B"/>
<path d="M173.704 27.0724V13.3254H177.429V27.0724H173.704ZM175.567 11.47C174.889 11.47 174.381 11.3013 173.873 10.8797C173.366 10.458 173.281 9.95194 173.281 9.36158C173.281 8.68688 173.45 8.18086 173.873 7.67483C174.297 7.25315 174.805 7.08447 175.567 7.08447C176.244 7.08447 176.752 7.25315 177.26 7.67483C177.683 8.09652 177.852 8.60255 177.852 9.36158C177.852 10.0363 177.683 10.5423 177.26 10.8797C176.836 11.3013 176.244 11.47 175.567 11.47Z" fill="#1E396B"/>
<path d="M14.7293 2.53003H11.5126C8.88842 2.53003 6.43353 3.96376 4.65586 6.66256C2.87818 9.19268 1.94702 12.6505 1.94702 16.277C1.94702 20.0722 2.96284 23.53 4.82516 26.1445C6.60284 28.6746 8.97307 30.024 11.428 30.024H14.6447C17.0149 29.8553 19.2159 28.4216 20.8242 25.8915C22.6019 23.277 23.5331 19.9035 23.5331 16.277C23.5331 12.8192 22.6019 9.36135 20.9089 6.83123C19.3852 4.30111 17.0996 2.86738 14.7293 2.53003Z" fill="#875F27"/>
<path d="M20.3163 16.3613C20.3163 12.7348 19.3005 9.69868 17.7768 7.25289C16.6763 5.65048 15.4066 4.38542 13.8829 3.79506V3.12036H11.2587C6.3489 3.12036 2.28564 9.02398 2.28564 16.277C2.28564 20.0722 3.38611 23.4457 5.07913 25.8914C6.6875 28.0842 8.88844 29.518 11.2587 29.518H13.8829V28.9276C17.6922 27.1565 20.3163 22.2649 20.3163 16.3613Z" fill="#F8B828"/>
<path d="M14.0522 29.6024H11.2587C8.88843 29.6024 6.6875 28.253 4.99448 25.8072C3.2168 23.2771 2.20099 19.9036 2.20099 16.1927C2.20099 8.85538 6.3489 2.86743 11.3433 2.86743H14.1368V3.45779C15.5759 4.21683 16.9303 5.31321 17.9461 6.91562C19.5545 9.44574 20.4856 12.6506 20.4856 16.1084C20.4856 21.9277 17.9461 26.9879 14.2215 28.759L14.0522 29.6024ZM11.3433 3.20478C6.5182 3.20478 2.53959 9.02406 2.53959 16.2771C2.53959 19.9036 3.55541 23.2771 5.24843 25.7229C6.8568 28.0843 9.05773 29.3494 11.3433 29.3494H13.8828V28.759H13.9675C15.7452 27.9156 17.2689 26.3132 18.454 24.1204C19.6391 21.9277 20.2317 19.0602 20.2317 16.2771C20.2317 12.9036 19.3005 9.69876 17.7768 7.25297C16.5917 5.65056 15.2373 4.46984 13.8828 3.87948H13.7982V3.20478H11.3433Z" fill="#B28445"/>
<path d="M20.5703 7.16866C18.9619 4.63854 16.6763 3.03613 14.1368 3.03613C9.14239 3.12047 5.07913 9.02409 5.07913 16.1928C5.07913 19.9879 6.1796 23.3614 7.87262 25.8072C9.48099 28 11.6819 29.4337 14.0522 29.4337C18.9619 29.4337 23.0252 23.5301 23.0252 16.2771C22.9405 12.8193 22.094 9.61445 20.5703 7.16866ZM14.5601 26.2289C14.3908 26.2289 14.3061 26.2289 14.1368 26.2289C12.3591 26.2289 10.7508 25.1325 9.48099 23.5301C8.21122 21.8434 7.36471 19.3976 7.36471 16.6988C7.36471 16.5301 7.36471 16.4458 7.36471 16.2771C7.36471 10.8795 10.4122 6.32529 14.0522 6.32529C14.2215 6.32529 14.3061 6.32529 14.4754 6.32529C17.9461 6.66264 20.7396 10.9638 20.7396 16.2771C20.7396 16.4458 20.7396 16.5301 20.7396 16.6988C20.6549 21.8434 17.9461 25.8916 14.5601 26.2289Z" fill="#F6E245"/>
<path d="M14.0522 29.6024C11.6819 29.6024 9.48099 28.253 7.78796 25.8072C6.01029 23.2771 4.99448 19.9036 4.99448 16.1927C4.99448 8.85538 9.05773 2.86743 14.0522 2.86743C16.5917 2.86743 18.8773 4.30117 20.5703 6.99996C22.1787 9.53008 23.1098 12.7349 23.1098 16.1927C23.0252 23.6144 18.9619 29.6024 14.0522 29.6024ZM14.0522 3.20478C9.22704 3.20478 5.24843 9.02406 5.24843 16.2771C5.24843 19.9036 6.26424 23.2771 7.95727 25.7229C9.56564 28.0843 11.7666 29.3494 14.0522 29.3494C18.8773 29.3494 22.8559 23.5301 22.8559 16.2771C22.8559 12.9036 21.9247 9.69876 20.401 7.25297C18.708 4.63852 16.507 3.20478 14.0522 3.20478ZM14.0522 26.3976C12.2745 26.3976 10.5815 25.3855 9.31169 23.6144C7.95727 21.8433 7.19541 19.3132 7.19541 16.6988C7.19541 16.5301 7.19541 16.4457 7.19541 16.2771C7.19541 10.7108 10.2428 6.15659 14.1368 6.15659C14.3061 6.15659 14.3908 6.15659 14.5601 6.15659C18.2001 6.49394 20.9935 10.8795 20.9935 16.2771C20.9935 16.4457 20.9935 16.5301 20.9935 16.6988C20.8242 21.8433 18.1154 26.0602 14.5601 26.3132C14.3061 26.3976 14.2215 26.3976 14.0522 26.3976ZM14.0522 6.49394C10.4122 6.49394 7.44936 10.8795 7.44936 16.3614C7.44936 16.5301 7.44936 16.6144 7.44936 16.7831C7.53401 19.3976 8.29587 21.8433 9.56564 23.4457C10.8354 25.1325 12.4438 26.1445 14.0522 26.1445C14.2215 26.1445 14.3061 26.1445 14.4754 26.1445C17.8615 25.8072 20.4856 21.759 20.6549 16.7831C20.6549 16.6144 20.6549 16.5301 20.6549 16.3614C20.6549 11.2168 17.9461 6.91562 14.4754 6.49394C14.3061 6.49394 14.0522 6.49394 14.0522 6.49394Z" fill="#B28445"/>
<path d="M14.5601 6.40967C14.3908 6.40967 14.3061 6.40967 14.1368 6.40967C14.0522 6.40967 13.8829 6.40967 13.7982 6.40967H13.8829C17.3536 6.74702 20.1471 11.0482 20.1471 16.3615C20.1471 16.5301 20.1471 16.6145 20.1471 16.7832C19.9778 21.9277 17.2689 25.9759 13.8829 26.2289H13.7982C13.8829 26.2289 14.0522 26.2289 14.1368 26.2289C14.3061 26.2289 14.3908 26.2289 14.5601 26.2289C17.9461 25.8916 20.7396 21.7591 20.8243 16.7832C20.8243 16.6145 20.8243 16.5301 20.8243 16.3615C20.8243 11.0482 18.0308 6.74702 14.5601 6.40967Z" fill="#F8B218"/>
<path d="M14.0522 26.3976C13.9675 26.3976 13.7982 26.3976 13.7136 26.3976V26.1446H13.7982C17.1843 25.8072 19.8084 21.759 19.9777 16.7831C19.9777 16.6145 19.9777 16.5301 19.9777 16.3614C19.9777 11.2169 17.2689 6.91567 13.7982 6.49398H13.7136V6.24097C13.9675 6.24097 14.2215 6.24097 14.6447 6.24097C18.2847 6.57832 21.0782 10.9639 21.0782 16.3614C21.0782 16.5301 21.0782 16.6145 21.0782 16.7831C20.9089 21.9277 18.2001 26.1446 14.6447 26.3976C14.3061 26.3976 14.2215 26.3976 14.0522 26.3976ZM15.4066 6.74699C18.2001 8.09639 20.147 11.8916 20.147 16.3614C20.147 16.5301 20.147 16.6145 20.147 16.7831C20.0624 21.0843 18.0308 24.6265 15.4066 25.9759C18.2847 25.0482 20.5703 21.3374 20.5703 16.7831C20.5703 16.6145 20.5703 16.5301 20.5703 16.3614C20.655 11.7229 18.454 7.6747 15.4066 6.74699Z" fill="#B28445"/>
<path d="M17.8614 2.53003H14.6447C12.0205 2.53003 9.56561 3.96376 7.78794 6.66256C6.01026 9.19268 5.0791 12.6505 5.0791 16.277C5.0791 20.0722 6.09492 23.53 7.95724 26.1445C9.73491 28.6746 12.1051 30.024 14.56 30.024H17.7768C20.147 29.8553 22.3479 28.4216 23.9563 25.8915C25.734 23.277 26.6651 19.9035 26.6651 16.277C26.6651 12.8192 25.734 9.36135 24.041 6.83123C22.5172 4.30111 20.3163 2.86738 17.8614 2.53003Z" fill="#875F27"/>
<path d="M23.4484 16.3613C23.4484 12.7348 22.4326 9.69868 20.9089 7.25289C19.8084 5.65048 18.5386 4.38542 17.0149 3.79506V3.12036H14.3907C9.48095 3.12036 5.41769 9.02398 5.41769 16.277C5.41769 20.0722 6.51816 23.4457 8.21118 25.8914C9.81955 28.0842 12.0205 29.518 14.3907 29.518H17.0149V28.9276C20.8242 27.1565 23.4484 22.2649 23.4484 16.3613Z" fill="#F8B828"/>
<path d="M17.3535 29.6024H14.56C12.1898 29.6024 9.98886 28.253 8.29584 25.8072C6.51816 23.2771 5.50235 19.8192 5.50235 16.1927C5.50235 8.85538 9.56561 2.86743 14.56 2.86743H17.3535V3.45779C18.7926 4.21683 20.147 5.31321 21.1628 6.91562C22.7712 9.44574 23.7024 12.6506 23.7024 16.1084C23.7024 18.9759 23.1098 21.759 21.9247 24.0361C20.7396 26.2289 19.2158 27.9156 17.4382 28.759L17.3535 29.6024ZM14.56 3.20478C9.73491 3.20478 5.7563 9.02406 5.7563 16.2771C5.7563 19.9036 6.77212 23.2771 8.46514 25.7229C10.0735 28.0843 12.2744 29.3494 14.56 29.3494H17.0996V28.759H17.1842C18.9619 27.9156 20.4856 26.3132 21.6707 24.1204C22.8558 21.9277 23.4484 19.0602 23.4484 16.2771C23.4484 12.9036 22.5172 9.69876 20.9935 7.25297C19.8084 5.65056 18.454 4.46984 17.0996 3.87948H17.0149V3.20478H14.56Z" fill="#B28445"/>
<path d="M23.6177 7.16866C22.0093 4.63854 19.7237 3.03613 17.1842 3.03613C12.2744 3.03613 8.21118 8.93975 8.21118 16.1928C8.21118 19.9879 9.31165 23.3614 11.0047 25.8072C12.613 28 14.814 29.4337 17.1842 29.4337C22.094 29.4337 26.1572 23.5301 26.1572 16.2771C26.2419 12.8193 25.1414 9.61445 23.6177 7.16866ZM17.6921 26.2289C17.5228 26.2289 17.4382 26.2289 17.2689 26.2289C15.4912 26.2289 13.8828 25.1325 12.613 23.5301C11.3433 21.8434 10.4968 19.3976 10.4968 16.6988C10.4968 16.5301 10.4968 16.4458 10.4968 16.2771C10.4968 10.8795 13.5442 6.32529 17.1842 6.32529C17.3535 6.32529 17.4382 6.32529 17.6075 6.32529C21.0782 6.66264 23.8716 10.9638 23.8716 16.2771C23.8716 16.4458 23.8716 16.5301 23.8716 16.6988C23.8716 21.8434 21.0782 25.8916 17.6921 26.2289Z" fill="#F6E245"/>
<path d="M17.1842 29.6024C14.814 29.6024 12.613 28.253 10.92 25.8072C9.14234 23.2771 8.12653 19.8192 8.12653 16.1927C8.12653 8.85538 12.1898 2.86743 17.1842 2.86743C19.7237 2.86743 22.0093 4.30117 23.7023 6.99996C25.3107 9.53008 26.2419 12.7349 26.2419 16.1927C26.2419 23.6144 22.1786 29.6024 17.1842 29.6024ZM17.1842 3.20478C12.3591 3.20478 8.38048 9.02406 8.38048 16.2771C8.38048 19.9036 9.39629 23.2771 11.0893 25.7229C12.6977 28.0843 14.8986 29.3494 17.1842 29.3494C22.0093 29.3494 25.9879 23.5301 25.9879 16.2771C25.9879 12.9036 25.0568 9.69876 23.533 7.25297C21.84 4.63852 19.6391 3.20478 17.1842 3.20478ZM17.1842 26.3976C15.4065 26.3976 13.7135 25.3855 12.4437 23.6144C11.0893 21.8433 10.3275 19.3132 10.3275 16.6988C10.3275 16.5301 10.3275 16.4457 10.3275 16.2771C10.3275 10.7108 13.3749 6.15659 17.2689 6.15659C17.4382 6.15659 17.5228 6.15659 17.6921 6.15659C21.3321 6.49394 24.1256 10.8795 24.1256 16.2771C24.1256 16.4457 24.1256 16.5301 24.1256 16.6988C23.9563 21.8433 21.2475 26.0602 17.6921 26.3132C17.6075 26.3976 17.3535 26.3976 17.1842 26.3976ZM17.1842 6.49394C13.5442 6.49394 10.5814 10.8795 10.5814 16.3614C10.5814 16.5301 10.5814 16.6144 10.5814 16.7831C10.6661 19.3976 11.4279 21.8433 12.6977 23.4457C13.9675 25.1325 15.5758 26.1445 17.1842 26.1445C17.3535 26.1445 17.4382 26.1445 17.6075 26.1445C20.9935 25.8072 23.6177 21.759 23.787 16.7831C23.787 16.6144 23.787 16.5301 23.787 16.3614C23.787 11.2168 21.0782 6.91562 17.6075 6.49394C17.5228 6.49394 17.3535 6.49394 17.1842 6.49394Z" fill="#B28445"/>
<path d="M17.6921 6.40967C17.5228 6.40967 17.4382 6.40967 17.2689 6.40967C17.1842 6.40967 17.0149 6.40967 16.9303 6.40967H17.0149C20.4856 6.74702 23.2791 11.0482 23.2791 16.3615C23.2791 16.5301 23.2791 16.6145 23.2791 16.7832C23.1098 21.9277 20.401 25.9759 17.0149 26.2289H16.9303C17.0149 26.2289 17.1842 26.2289 17.2689 26.2289C17.4382 26.2289 17.5228 26.2289 17.6921 26.2289C21.0782 25.8916 23.8717 21.7591 23.9563 16.7832C23.9563 16.6145 23.9563 16.5301 23.9563 16.3615C23.9563 11.0482 21.1628 6.74702 17.6921 6.40967Z" fill="#F8B218"/>
<path d="M17.1842 26.3976C17.0996 26.3976 16.9303 26.3976 16.8456 26.3976V26.1446H16.9303C20.2317 25.8072 22.9405 21.759 23.0251 16.7831C23.0251 16.6145 23.0251 16.5301 23.0251 16.3614C23.0251 11.2169 20.3163 6.91567 16.8456 6.49398H16.761V6.24097C17.0149 6.24097 17.2689 6.24097 17.6921 6.24097C21.3321 6.57832 24.1256 10.9639 24.1256 16.3614C24.1256 16.5301 24.1256 16.6145 24.1256 16.7831C23.9563 21.9277 21.2475 26.1446 17.6921 26.3976C17.6075 26.3976 17.3535 26.3976 17.1842 26.3976ZM18.5386 6.74699C21.3321 8.09639 23.2791 11.8916 23.2791 16.3614C23.2791 16.5301 23.2791 16.6145 23.2791 16.7831C23.1944 21.0843 21.1628 24.6265 18.5386 25.9759C21.4168 25.0482 23.7024 21.3374 23.7024 16.7831C23.7024 16.6145 23.7024 16.5301 23.7024 16.3614C23.8717 11.7229 21.5861 7.6747 18.5386 6.74699Z" fill="#B28445"/>
<path d="M20.8242 2.53003H17.6075C14.9833 2.53003 12.5284 3.96376 10.7507 6.66256C8.97306 9.27702 8.0419 12.6505 8.0419 16.277C8.0419 20.0722 9.05771 23.53 10.92 26.1445C12.6977 28.6746 15.0679 30.024 17.5228 30.024H20.7396C23.1098 29.8553 25.3107 28.4216 26.9191 25.8915C28.6968 23.277 29.6279 19.9035 29.6279 16.277C29.6279 12.8192 28.6968 9.36135 27.0038 6.83123C25.5647 4.30111 23.2791 2.86738 20.8242 2.53003Z" fill="#875F27"/>
<path d="M26.4958 16.3613C26.4958 12.7348 25.48 9.69868 23.9563 7.25289C22.8558 5.65048 21.5861 4.38542 20.0624 3.79506V3.12036H17.4382C12.5284 3.12036 8.46515 9.02398 8.46515 16.277C8.46515 20.0722 9.56561 23.4457 11.2586 25.8914C12.867 28.0842 15.0679 29.518 17.4382 29.518H20.147V28.9276C23.8717 27.1565 26.4958 22.2649 26.4958 16.3613Z" fill="#F8B828"/>
<path d="M20.3163 29.6024H17.5228C15.1526 29.6024 12.9517 28.253 11.2586 25.8072C9.48096 23.2771 8.46515 19.8192 8.46515 16.1927C8.46515 8.85538 12.6131 2.86743 17.5228 2.86743H20.3163V3.45779C21.7554 4.21683 23.1098 5.31321 24.1256 6.91562C25.734 9.44574 26.6651 12.6506 26.6651 16.1084C26.6651 21.9277 24.1256 26.9879 20.401 28.759L20.3163 29.6024ZM17.6075 3.20478C12.7824 3.20478 8.80375 9.02406 8.80375 16.2771C8.80375 19.9036 9.81957 23.2771 11.5126 25.7229C13.121 28.0843 15.3219 29.3494 17.6075 29.3494H20.147V28.759H20.2317C22.0093 27.9156 23.5331 26.3132 24.7182 24.1204C25.9033 21.9277 26.4958 19.0602 26.4958 16.2771C26.4958 12.9036 25.5647 9.69876 24.041 7.25297C22.9405 5.65056 21.5861 4.46984 20.147 3.87948H20.0624V3.20478H17.6075Z" fill="#B28445"/>
<path d="M26.6651 7.16842C25.0568 4.6383 22.7712 3.03589 20.2317 3.03589C15.3219 3.03589 11.2586 8.9395 11.2586 16.1925C11.2586 19.9877 12.3591 23.3612 14.0521 25.807C15.6605 27.9997 17.8614 29.4335 20.2317 29.4335C25.1414 29.4335 29.2047 23.5299 29.2047 16.2769C29.2047 12.819 28.2735 9.6142 26.6651 7.16842ZM20.6549 26.2287C20.4856 26.2287 20.401 26.2287 20.2317 26.2287C18.454 26.2287 16.8456 25.1323 15.5758 23.5299C14.3061 21.8431 13.4596 19.3973 13.4596 16.6985C13.4596 16.5299 13.4596 16.4455 13.4596 16.2769C13.4596 10.8793 16.507 6.32505 20.147 6.32505C20.3163 6.32505 20.401 6.32505 20.5703 6.32505C24.041 6.6624 26.8345 10.9636 26.8345 16.2769C26.8345 16.4455 26.8345 16.5299 26.8345 16.6985C26.8345 21.8431 24.1256 25.8913 20.6549 26.2287Z" fill="#F6E245"/>
<path d="M20.3163 29.6023C17.9461 29.6023 15.7451 28.2529 14.0521 25.8071C12.2745 23.277 11.2586 19.8191 11.2586 16.1926C11.2586 8.93961 15.2372 2.95166 20.3163 2.95166C22.8558 2.95166 25.1414 4.38539 26.8345 7.08419C28.4428 9.61431 29.374 12.8191 29.374 16.277C29.2893 23.6143 25.3107 29.6023 20.3163 29.6023ZM20.3163 3.20467C15.4912 3.20467 11.5126 9.02395 11.5126 16.277C11.5126 19.9035 12.5284 23.277 14.2214 25.7227C15.8298 28.0842 18.0307 29.3493 20.3163 29.3493C25.1414 29.3493 29.12 23.53 29.12 16.277C29.12 12.9035 28.1889 9.69865 26.6651 7.25287C24.8875 4.63841 22.6019 3.20467 20.3163 3.20467ZM20.3163 26.3974C18.5386 26.3974 16.8456 25.3854 15.5758 23.6143C14.2214 21.8432 13.4596 19.3131 13.4596 16.6986C13.4596 16.53 13.4596 16.4456 13.4596 16.277C13.4596 10.7107 16.507 6.15648 20.401 6.15648C20.5703 6.15648 20.6549 6.15648 20.8242 6.15648C24.4642 6.49383 27.2577 10.8794 27.2577 16.277C27.2577 16.4456 27.2577 16.53 27.2577 16.6986C27.0884 21.8432 24.3796 26.0601 20.8242 26.3131C20.5703 26.3974 20.3163 26.3974 20.3163 26.3974ZM20.3163 6.49383C16.6763 6.49383 13.7135 10.8794 13.7135 16.3613C13.7135 16.53 13.7135 16.6143 13.7135 16.783C13.7982 19.3974 14.56 21.8432 15.8298 23.4456C17.0996 25.1324 18.7079 26.1444 20.3163 26.1444C20.4856 26.1444 20.5703 26.1444 20.7396 26.1444C24.1256 25.8071 26.7498 21.7589 26.9191 16.783C26.9191 16.6143 26.9191 16.53 26.9191 16.3613C26.9191 11.2167 24.2103 6.91552 20.7396 6.49383C20.5703 6.49383 20.3163 6.49383 20.3163 6.49383Z" fill="#B28445"/>
<path d="M20.6549 6.40942C20.4856 6.40942 20.401 6.40942 20.2317 6.40942C20.147 6.40942 19.9777 6.40942 19.8931 6.40942H19.9777C23.4484 6.74677 26.2419 11.048 26.2419 16.3612C26.2419 16.5299 26.2419 16.6142 26.2419 16.7829C26.0726 21.9275 23.3638 25.9757 19.9777 26.2287H19.8931C19.9777 26.2287 20.147 26.2287 20.2317 26.2287C20.401 26.2287 20.4856 26.2287 20.6549 26.2287C24.041 25.8914 26.8345 21.7588 26.9191 16.7829C26.9191 16.6142 26.9191 16.5299 26.9191 16.3612C27.0038 11.048 24.2103 6.74677 20.6549 6.40942Z" fill="#F8B218"/>
<path d="M20.3163 26.3974C20.2317 26.3974 20.0624 26.3974 19.9777 26.3974V26.1443H20.0624C23.4484 25.807 26.0726 21.7588 26.2419 16.7829C26.2419 16.6142 26.2419 16.5299 26.2419 16.3612C26.2419 11.2166 23.5331 6.91542 20.0624 6.49373H19.9777V6.24072C20.2317 6.24072 20.4856 6.24072 20.9089 6.24072C24.5489 6.57807 27.3424 10.9636 27.3424 16.3612C27.3424 16.5299 27.3424 16.6142 27.3424 16.7829C27.0884 21.9275 24.3796 26.06 20.8242 26.3974C20.5703 26.3974 20.3163 26.3974 20.3163 26.3974ZM21.5861 6.74675C24.3796 8.09614 26.3266 11.8913 26.3266 16.3612C26.3266 16.5299 26.3266 16.6142 26.3266 16.7829C26.2419 21.0841 24.2103 24.6263 21.5861 25.9757C24.4642 25.048 26.7498 21.3371 26.7498 16.7829C26.7498 16.6142 26.7498 16.5299 26.7498 16.3612C26.8345 11.7227 24.6335 7.67446 21.5861 6.74675Z" fill="#B28445"/>
<path d="M18.2847 19.1445V22.3493H17.3535V21L18.2847 19.1445Z" fill="#F6E245"/>
<path d="M19.3852 17.0361L19.8084 17.7952V17.8795V22.3494H18.8773V17.9638L19.3852 17.0361Z" fill="#F6E245"/>
<path d="M21.2475 17.3733V22.3492H20.3163V19.313L20.5703 19.1444L21.1628 17.795L21.2475 17.3733Z" fill="#F6E245"/>
<path d="M22.8558 14.3372V22.3492H21.9247V16.1926L22.8558 14.3372Z" fill="#F6E245"/>
<path d="M20.3163 17.7107H20.0624L19.3852 16.3613H19.8084L20.3163 17.7107Z" fill="#875F27"/>
<path d="M17.3535 20.9998H16.9303V22.4335H17.3535V20.9998Z" fill="#875F27"/>
<path d="M17.3535 21H16.9303L17.8614 19.1445H18.2847L17.3535 21Z" fill="#875F27"/>
<path d="M18.9619 17.9636H18.5387V22.3492H18.9619V17.9636Z" fill="#875F27"/>
<path d="M18.8773 17.9636H18.5387L18.9619 17.0359H19.3852L18.8773 17.9636Z" fill="#875F27"/>
<path d="M21.1628 17.795H20.6549L20.9089 17.3733H21.2475L21.1628 17.795Z" fill="#875F27"/>
<path d="M20.5703 19.1443H20.0624L20.6549 17.7949H21.1628L20.5703 19.1443Z" fill="#875F27"/>
<path d="M20.3163 19.3132H20.0624V19.1445H20.5703L20.3163 19.3132Z" fill="#875F27"/>
<path d="M20.4856 19.313H20.0624V22.5178H20.4856V19.313Z" fill="#875F27"/>
<path d="M22.0093 16.1926H21.5861V22.3493H22.0093V16.1926Z" fill="#875F27"/>
<path d="M21.9247 16.1926H21.5861L22.5173 14.3372H22.8559L21.9247 16.1926Z" fill="#875F27"/>
<path d="M23.4484 12.4818H23.0252L22.8559 11.8071H23.2791L23.4484 12.4818Z" fill="#875F27"/>
<path d="M22.6019 10.4577H22.1787L21.9247 9.95166H22.348L22.6019 10.4577Z" fill="#875F27"/>
<path d="M20.3163 14.9276H20.0624L22.1787 10.4578H22.6019L20.3163 14.9276Z" fill="#875F27"/>
<path d="M19.8084 16.3612H19.3852L18.9619 15.5178H19.4698L19.8084 16.3612Z" fill="#875F27"/>
<path d="M18.7926 14.1686H18.3694L18.9619 12.9036H19.4698L18.7926 14.1686Z" fill="#875F27"/>
<path d="M16.5917 18.8913H16.0838L18.3694 14.1685H18.7926L16.5917 18.8913Z" fill="#875F27"/>
<path d="M17.1842 20.0721H16.761L16.0838 18.8914H16.5917L17.1842 20.0721Z" fill="#875F27"/>
<path d="M22.348 9.95166H23.4484V12.4818L23.2791 11.8071L21.0782 16.3613L20.3163 17.7107L19.8084 16.3613L19.4698 15.5179L17.1842 20.0721L16.5917 18.8914L18.7926 14.1685L19.4698 12.9035L20.0624 14.1685L20.3163 14.9276L22.6019 10.4577L22.348 9.95166Z" fill="#F6E245"/>
<path d="M34.9609 38.2893H33.7758L35.8074 32.9761H36.9926L39.0242 38.2893H37.8391L37.5005 37.3616H35.2995L34.9609 38.2893ZM36.4 34.3255L35.6381 36.4339H37.1619L36.4 34.3255Z" fill="#1E396B"/>
<path d="M39.9554 37.0242H41.0558C41.0558 37.3616 41.3098 37.5303 41.733 37.5303C42.1563 37.5303 42.3256 37.3616 42.3256 37.1929C42.3256 37.0242 41.987 36.8556 41.5637 36.7712C41.3098 36.7712 41.1405 36.6869 40.9712 36.6025C40.5479 36.5182 40.2093 36.0965 40.2093 35.5905C40.2093 35.2532 40.3786 34.9158 40.6326 34.6628C40.8865 34.4098 41.3098 34.3254 41.8177 34.3254C42.3256 34.3254 42.7488 34.4941 43.0028 34.7471C43.2567 35.0001 43.426 35.3375 43.426 35.6748H42.3256C42.3256 35.4218 42.0716 35.1688 41.733 35.1688C41.3944 35.1688 41.1405 35.3375 41.1405 35.5062C41.1405 35.6748 41.4791 35.8435 41.9023 35.9278C42.1563 35.9278 42.3256 36.0122 42.4949 36.0965C42.9181 36.1809 43.2567 36.6025 43.2567 37.1929C43.2567 37.5303 43.0874 37.8676 42.8335 38.1206C42.4949 38.3736 42.1563 38.458 41.6484 38.458C40.6326 38.3736 40.04 37.9519 39.9554 37.0242Z" fill="#1E396B"/>
<path d="M48.5898 36.6868H45.7116C45.7963 37.2771 46.1349 37.5301 46.6428 37.5301C46.9814 37.5301 47.2354 37.3614 47.4047 37.1084H48.5051C48.4205 37.5301 48.1665 37.7831 47.8279 38.0361C47.4893 38.2892 47.0661 38.3735 46.6428 38.3735C46.0502 38.3735 45.5423 38.2048 45.2037 37.7831C44.8651 37.4458 44.6112 36.8554 44.6112 36.2651C44.6112 35.6747 44.7805 35.1687 45.2037 34.8313C45.5423 34.4096 46.0502 34.241 46.6428 34.241C47.2354 34.241 47.6586 34.4096 48.0819 34.8313C48.4205 35.253 48.6744 35.759 48.6744 36.3494L48.5898 36.6868ZM45.7963 35.8434H47.574C47.4893 35.4217 47.1507 35.0843 46.6428 35.0843C46.1349 35.0843 45.8809 35.4217 45.7963 35.8434Z" fill="#1E396B"/>
<path d="M52.0605 37.3616V38.2893C51.9758 38.2893 51.7219 38.2893 51.5526 38.2893C50.706 38.2893 50.3674 37.8676 50.3674 37.1085V35.1688H49.8595V34.3254H50.3674V33.3977H51.4679V34.3254H52.1451V35.1688H51.5526V36.9399C51.5526 37.1929 51.7219 37.2772 51.9758 37.2772L52.0605 37.3616Z" fill="#1E396B"/>
<path d="M59.933 38.2893H58.8326V35.9278C58.8326 35.4218 58.5786 35.1688 58.24 35.1688C57.7321 35.1688 57.4782 35.5062 57.4782 36.0122V38.2893H56.3777V34.4098H57.3935V34.9158C57.5628 34.5785 57.9861 34.3254 58.5786 34.3254C59.0865 34.3254 59.5098 34.4941 59.7637 34.9158C60.1023 34.5785 60.5256 34.3254 61.0335 34.3254C61.9647 34.3254 62.4726 34.9158 62.4726 35.8435V38.2893H61.3721V35.9278C61.3721 35.4218 61.1182 35.1688 60.7795 35.1688C60.2716 35.1688 60.0177 35.5062 60.0177 36.0122L59.933 38.2893Z" fill="#1E396B"/>
<path d="M63.9963 37.1084C63.9963 36.4337 64.5042 36.0121 65.52 35.8434L66.5358 35.6747C66.5358 35.3374 66.2819 35.0843 65.8586 35.0843C65.4354 35.0843 65.1814 35.253 65.0967 35.5904H64.0809C64.0809 35.253 64.2502 34.9157 64.5888 34.6627C64.9274 34.4096 65.266 34.241 65.8586 34.241C67.0437 34.241 67.6363 34.747 67.6363 35.6747V37.5301C67.6363 37.8675 67.6363 38.0361 67.7209 38.2048H66.7051C66.7051 38.2048 66.7051 38.0361 66.7051 37.7831C66.4512 38.1205 66.0279 38.2892 65.4354 38.2892C64.5042 38.3735 63.9963 37.8675 63.9963 37.1084ZM66.5358 36.5181L65.6047 36.6868C65.1814 36.7711 65.0121 36.9398 65.0121 37.1928C65.0121 37.4458 65.1814 37.6145 65.6047 37.6145C66.1972 37.6145 66.5358 37.2771 66.5358 36.6868V36.5181Z" fill="#1E396B"/>
<path d="M69.0753 37.0242H70.1758C70.1758 37.3616 70.4298 37.5303 70.853 37.5303C71.2763 37.5303 71.4456 37.3616 71.4456 37.1929C71.4456 37.0242 71.107 36.8556 70.6837 36.7712C70.4298 36.7712 70.2605 36.6869 70.0912 36.6025C69.6679 36.5182 69.3293 36.0965 69.3293 35.5905C69.3293 35.2532 69.4986 34.9158 69.7526 34.6628C70.0912 34.4098 70.4298 34.3254 70.9377 34.3254C71.4456 34.3254 71.8688 34.4941 72.1228 34.7471C72.3767 35.0001 72.546 35.3375 72.546 35.6748H71.5302C71.5302 35.4218 71.2763 35.1688 70.9377 35.1688C70.5991 35.1688 70.3451 35.3375 70.3451 35.5062C70.3451 35.6748 70.6837 35.8435 71.107 35.9278C71.3609 35.9278 71.5302 36.0122 71.6995 36.0965C72.1228 36.1809 72.4614 36.6025 72.4614 37.1929C72.4614 37.5303 72.2921 37.8676 72.0381 38.1206C71.6995 38.3736 71.3609 38.458 70.853 38.458C69.7526 38.3736 69.16 37.9519 69.0753 37.0242Z" fill="#1E396B"/>
<path d="M73.8158 37.1084C73.8158 36.4337 74.3237 36.0121 75.3396 35.8434L76.3554 35.6747C76.3554 35.3374 76.1014 35.0843 75.6782 35.0843C75.2549 35.0843 75.0009 35.253 74.9163 35.5904H73.9005C73.9005 35.253 74.0698 34.9157 74.4084 34.6627C74.747 34.4096 75.0856 34.241 75.6782 34.241C76.8633 34.241 77.4558 34.747 77.4558 35.6747V37.5301C77.4558 37.8675 77.4558 38.0361 77.5405 38.2048H76.5247C76.5247 38.2048 76.5247 38.0361 76.5247 37.7831C76.2707 38.1205 75.8475 38.2892 75.2549 38.2892C74.3237 38.3735 73.8158 37.8675 73.8158 37.1084ZM76.44 36.5181L75.5089 36.6868C75.0856 36.7711 74.9163 36.9398 74.9163 37.1928C74.9163 37.4458 75.0856 37.6145 75.5089 37.6145C76.1014 37.6145 76.44 37.2771 76.44 36.6868V36.5181Z" fill="#1E396B"/>
<path d="M84.5665 34.4098H85.9209L84.3972 36.0965L86.0056 38.3736H84.7358L83.72 36.8556L83.1274 37.5303V38.458H82.027V32.8074H83.1274V36.2652L84.5665 34.4098Z" fill="#1E396B"/>
<path d="M87.6986 33.9037C87.5293 33.9037 87.36 33.8194 87.1907 33.7351C87.106 33.6507 87.0214 33.482 87.0214 33.3134C87.0214 33.1447 87.106 32.976 87.1907 32.8073C87.2753 32.723 87.4446 32.6387 87.6986 32.6387C87.8679 32.6387 88.0372 32.723 88.2065 32.8073C88.2912 32.8917 88.3758 33.0604 88.3758 33.3134C88.3758 33.482 88.2912 33.6507 88.2065 33.7351C88.1219 33.8194 87.9526 33.9037 87.6986 33.9037ZM87.1907 38.2893V34.4098H88.2912V38.2893H87.1907Z" fill="#1E396B"/>
<path d="M91.0847 34.4098V34.9158C91.254 34.5785 91.6772 34.3254 92.2698 34.3254C93.2009 34.3254 93.7088 34.9158 93.7088 35.8435V38.2893H92.6084V35.9278C92.6084 35.4218 92.3544 35.1688 91.9312 35.1688C91.4233 35.1688 91.0847 35.5062 91.0847 36.0122V38.2893H89.9842V34.4098H91.0847Z" fill="#1E396B"/>
<path d="M96.0791 33.9037C95.9098 33.9037 95.7405 33.8194 95.5712 33.7351C95.4865 33.6507 95.4019 33.482 95.4019 33.3134C95.4019 33.1447 95.4865 32.976 95.5712 32.8073C95.6558 32.723 95.8251 32.6387 96.0791 32.6387C96.2484 32.6387 96.4177 32.723 96.587 32.8073C96.6716 32.8917 96.7563 33.0604 96.7563 33.3134C96.7563 33.482 96.6716 33.6507 96.587 33.7351C96.4177 33.8194 96.2484 33.9037 96.0791 33.9037ZM95.4865 38.2893V34.4098H96.587V38.2893H95.4865Z" fill="#1E396B"/>
<path d="M98.4493 37.1086H99.6344L98.9572 39.3858H98.0261L98.4493 37.1086Z" fill="#1E396B"/>
<path d="M106.576 34.4098H107.93L106.407 36.0965L108.015 38.3736H106.745L105.729 36.8556L105.137 37.5303V38.458H104.036V32.8074H105.137V36.2652L106.576 34.4098Z" fill="#1E396B"/>
<path d="M108.946 37.1084C108.946 36.4337 109.454 36.0121 110.47 35.8434L111.486 35.6747C111.486 35.3374 111.232 35.0843 110.808 35.0843C110.385 35.0843 110.131 35.253 110.047 35.5904H109.031C109.031 35.253 109.2 34.9157 109.539 34.6627C109.877 34.4096 110.216 34.241 110.808 34.241C111.993 34.241 112.586 34.747 112.586 35.6747V37.5301C112.586 37.8675 112.586 38.0361 112.671 38.2048H111.655C111.655 38.2048 111.655 38.0361 111.655 37.7831C111.401 38.1205 110.978 38.2892 110.385 38.2892C109.454 38.3735 108.946 37.8675 108.946 37.1084ZM111.486 36.5181L110.554 36.6868C110.131 36.7711 109.962 36.9398 109.962 37.1928C109.962 37.4458 110.131 37.6145 110.554 37.6145C111.147 37.6145 111.486 37.2771 111.486 36.6868V36.5181Z" fill="#1E396B"/>
<path d="M114.533 39.8916L115.21 38.2892L113.687 34.4097H114.872L115.803 37.0241L116.734 34.4097H117.834L115.634 39.8916H114.533Z" fill="#1E396B"/>
<path d="M118.766 37.1084C118.766 36.4337 119.274 36.0121 120.289 35.8434L121.305 35.6747C121.305 35.3374 121.051 35.0843 120.628 35.0843C120.205 35.0843 119.951 35.253 119.866 35.5904H118.85C118.85 35.253 119.02 34.9157 119.358 34.6627C119.697 34.4096 120.035 34.241 120.628 34.241C121.813 34.241 122.406 34.747 122.406 35.6747V37.5301C122.406 37.8675 122.406 38.0361 122.49 38.2048H121.474C121.474 38.2048 121.474 38.0361 121.474 37.7831C121.22 38.1205 120.797 38.2892 120.205 38.2892C119.273 38.3735 118.766 37.8675 118.766 37.1084ZM121.39 36.5181L120.459 36.6868C120.035 36.7711 119.866 36.9398 119.866 37.1928C119.866 37.4458 120.035 37.6145 120.459 37.6145C121.051 37.6145 121.39 37.2771 121.39 36.6868V36.5181Z" fill="#1E396B"/>
<path d="M130.532 38.2893H129.516V35.9278C129.516 35.4218 129.262 35.1688 128.924 35.1688C128.416 35.1688 128.162 35.5062 128.162 36.0122V38.2893H126.977V34.4098H127.993V34.9158C128.162 34.5785 128.585 34.3254 129.178 34.3254C129.686 34.3254 130.109 34.4941 130.363 34.9158C130.701 34.5785 131.125 34.3254 131.633 34.3254C132.564 34.3254 133.072 34.9158 133.072 35.8435V38.2893H132.056V35.9278C132.056 35.4218 131.802 35.1688 131.463 35.1688C130.955 35.1688 130.701 35.5062 130.701 36.0122V38.2893H130.532Z" fill="#1E396B"/>
<path d="M134.68 37.1084C134.68 36.4337 135.188 36.0121 136.204 35.8434L137.22 35.6747C137.22 35.3374 136.966 35.0843 136.542 35.0843C136.119 35.0843 135.865 35.253 135.78 35.5904H134.765C134.765 35.253 134.934 34.9157 135.273 34.6627C135.611 34.4096 135.95 34.241 136.542 34.241C137.727 34.241 138.32 34.747 138.32 35.6747V37.5301C138.32 37.8675 138.32 38.0361 138.405 38.2048H137.389C137.389 38.2048 137.389 38.0361 137.389 37.7831C137.135 38.1205 136.712 38.2892 136.119 38.2892C135.103 38.3735 134.68 37.8675 134.68 37.1084ZM137.22 36.5181L136.288 36.6868C135.865 36.7711 135.696 36.9398 135.696 37.1928C135.696 37.4458 135.865 37.6145 136.288 37.6145C136.881 37.6145 137.22 37.2771 137.22 36.6868V36.5181Z" fill="#1E396B"/>
<path d="M139.759 37.0242H140.86C140.86 37.3616 141.113 37.5303 141.537 37.5303C141.96 37.5303 142.129 37.3616 142.129 37.1929C142.129 37.0242 141.791 36.8556 141.367 36.7712C141.113 36.7712 140.944 36.6869 140.775 36.6025C140.352 36.5182 140.013 36.0965 140.013 35.5905C140.013 35.2532 140.182 34.9158 140.436 34.6628C140.69 34.4098 141.113 34.3254 141.621 34.3254C142.129 34.3254 142.553 34.4941 142.807 34.7471C143.06 35.0001 143.23 35.3375 143.23 35.6748H142.214C142.214 35.4218 141.96 35.1688 141.621 35.1688C141.283 35.1688 141.029 35.3375 141.029 35.5062C141.029 35.6748 141.367 35.8435 141.791 35.9278C142.045 35.9278 142.214 36.0122 142.383 36.0965C142.807 36.1809 143.145 36.6025 143.145 37.1929C143.145 37.5303 142.976 37.8676 142.722 38.1206C142.383 38.3736 142.045 38.458 141.537 38.458C140.352 38.3736 139.844 37.9519 139.759 37.0242Z" fill="#1E396B"/>
<path d="M144.5 37.1084C144.5 36.4337 145.007 36.0121 146.023 35.8434L147.039 35.6747C147.039 35.3374 146.785 35.0843 146.362 35.0843C145.939 35.0843 145.685 35.253 145.6 35.5904H144.584C144.584 35.253 144.753 34.9157 145.092 34.6627C145.431 34.4096 145.769 34.241 146.362 34.241C147.547 34.241 148.14 34.747 148.14 35.6747V37.5301C148.14 37.8675 148.14 38.0361 148.224 38.2048H147.208C147.208 38.2048 147.208 38.0361 147.208 37.7831C146.954 38.1205 146.531 38.2892 145.939 38.2892C144.923 38.3735 144.5 37.8675 144.5 37.1084ZM147.039 36.5181L146.108 36.6868C145.685 36.7711 145.515 36.9398 145.515 37.1928C145.515 37.4458 145.685 37.6145 146.108 37.6145C146.7 37.6145 147.039 37.2771 147.039 36.6868V36.5181Z" fill="#1E396B"/>
<path d="M155.42 32.6387H156.52V38.2893H155.504V37.8676C155.25 38.2049 154.827 38.458 154.234 38.458C153.642 38.458 153.219 38.2893 152.88 37.8676C152.541 37.4459 152.372 36.9399 152.372 36.3495C152.372 35.7592 152.541 35.2531 152.88 34.8314C153.219 34.4098 153.642 34.2411 154.234 34.2411C154.742 34.2411 155.166 34.4941 155.42 34.7471V32.6387ZM155.504 36.3495C155.504 36.0122 155.42 35.7592 155.25 35.5061C155.081 35.2531 154.827 35.1688 154.573 35.1688C154.319 35.1688 154.065 35.2531 153.896 35.5061C153.727 35.7592 153.642 36.0122 153.642 36.3495C153.642 36.6869 153.727 36.9399 153.896 37.1929C154.065 37.4459 154.319 37.5302 154.573 37.5302C154.827 37.5302 155.081 37.4459 155.25 37.1929C155.335 36.9399 155.504 36.6869 155.504 36.3495Z" fill="#1E396B"/>
<path d="M162.022 36.6868H159.144C159.229 37.2771 159.567 37.5301 160.075 37.5301C160.414 37.5301 160.668 37.3614 160.837 37.1084H161.938C161.853 37.5301 161.599 37.7831 161.26 38.0361C160.922 38.2892 160.499 38.3735 160.075 38.3735C159.483 38.3735 158.975 38.2048 158.636 37.7831C158.298 37.4458 158.044 36.8554 158.044 36.2651C158.044 35.6747 158.213 35.1687 158.636 34.8313C158.975 34.4096 159.483 34.241 160.075 34.241C160.668 34.241 161.091 34.4096 161.514 34.8313C161.938 35.253 162.107 35.759 162.107 36.3494L162.022 36.6868ZM159.144 35.8434H160.922C160.837 35.4217 160.499 35.0843 159.991 35.0843C159.567 35.0843 159.229 35.4217 159.144 35.8434Z" fill="#1E396B"/>
<path d="M164.647 39.8917H163.546V34.4098H164.562V34.9158C164.816 34.5785 165.239 34.3254 165.832 34.3254C166.424 34.3254 166.847 34.4941 167.186 34.9158C167.525 35.3375 167.694 35.8435 167.694 36.4339C167.694 37.0242 167.525 37.5303 167.186 37.9519C166.847 38.3736 166.424 38.5423 165.832 38.5423C165.324 38.5423 164.9 38.2893 164.647 38.0363V39.8917ZM164.647 36.3495C164.647 36.6869 164.731 36.9399 164.9 37.1929C165.07 37.4459 165.324 37.5303 165.578 37.5303C165.916 37.5303 166.086 37.4459 166.255 37.1929C166.424 36.9399 166.509 36.6869 166.509 36.3495C166.509 36.0122 166.424 35.7592 166.255 35.5062C166.086 35.2531 165.832 35.1688 165.578 35.1688C165.239 35.1688 165.07 35.2531 164.9 35.5062C164.731 35.7592 164.647 36.0122 164.647 36.3495Z" fill="#1E396B"/>
<path d="M169.048 37.1084C169.048 36.4337 169.556 36.0121 170.572 35.8434L171.588 35.6747C171.588 35.3374 171.334 35.0843 170.911 35.0843C170.487 35.0843 170.233 35.253 170.149 35.5904H169.133C169.133 35.253 169.302 34.9157 169.641 34.6627C169.98 34.4096 170.318 34.241 170.911 34.241C172.096 34.241 172.688 34.747 172.688 35.6747V37.5301C172.688 37.8675 172.688 38.0361 172.773 38.2048H171.757C171.757 38.2048 171.757 38.0361 171.757 37.7831C171.503 38.1205 171.08 38.2892 170.487 38.2892C169.556 38.3735 169.048 37.8675 169.048 37.1084ZM171.588 36.5181L170.657 36.6868C170.233 36.7711 170.064 36.9398 170.064 37.1928C170.064 37.4458 170.233 37.6145 170.657 37.6145C171.249 37.6145 171.588 37.2771 171.588 36.6868V36.5181Z" fill="#1E396B"/>
<path d="M175.397 34.4098V34.9158C175.567 34.5785 175.99 34.3254 176.582 34.3254C177.514 34.3254 178.021 34.9158 178.021 35.8435V38.2893H176.921V35.9278C176.921 35.4218 176.667 35.1688 176.244 35.1688C175.736 35.1688 175.397 35.5062 175.397 36.0122V38.2893H174.297V34.4098H175.397Z" fill="#1E396B"/>
</svg>
