<svg width="48" height="48" viewBox="0 0 48 48" fill="none" xmlns="http://www.w3.org/2000/svg">
<path fill-rule="evenodd" clip-rule="evenodd" d="M17.3841 4.47315C7.15093 11.0451 1.46597 18.6941 0.329176 27.4204C-1.44056 41.0052 10.7081 47.6546 16.8636 41.6801C23.0192 35.7058 19.3293 28.1225 14.8721 26.0497C10.4148 23.9767 7.68904 24.6987 8.16451 21.9287C8.63998 19.1587 14.9813 11.4786 20.5524 7.90188C20.9221 7.58757 21.0627 6.97771 20.7068 6.51514C20.4727 6.21076 20.0135 5.61403 19.3293 4.72474C18.731 3.94711 18.1578 3.9762 17.3841 4.47315Z" fill="#A9ACAF"/>
<path fill-rule="evenodd" clip-rule="evenodd" d="M44.3173 4.47315C34.0843 11.0451 28.3993 18.6941 27.2625 27.4204C25.4928 41.0052 37.6415 47.6546 43.797 41.6801C49.9526 35.7058 46.2627 28.1225 41.8055 26.0497C37.3482 23.9767 34.6223 24.6987 35.0979 21.9287C35.5734 19.1587 41.9147 11.4786 47.4858 7.90188C47.8555 7.58757 47.9961 6.97771 47.6401 6.51514C47.4061 6.21076 46.9469 5.61403 46.2627 4.72474C45.6644 3.94711 45.0912 3.9762 44.3173 4.47315Z" fill="#A9ACAF"/>
</svg>
