<svg width="29" height="29" viewBox="0 0 29 29" fill="none" xmlns="http://www.w3.org/2000/svg">
<path d="M13.7293 0.530029H10.5126C7.88842 0.530029 5.43353 1.96376 3.65586 4.66256C1.87818 7.19268 0.947021 10.6505 0.947021 14.277C0.947021 18.0722 1.96284 21.53 3.82516 24.1445C5.60284 26.6746 7.97307 28.024 10.428 28.024H13.6447C16.0149 27.8553 18.2159 26.4216 19.8242 23.8915C21.6019 21.277 22.5331 17.9035 22.5331 14.277C22.5331 10.8192 21.6019 7.36135 19.9089 4.83123C18.3852 2.30111 16.0996 0.867379 13.7293 0.530029Z" fill="#875F27"/>
<path d="M19.3163 14.3613C19.3163 10.7348 18.3005 7.69868 16.7768 5.25289C15.6763 3.65048 14.4066 2.38542 12.8829 1.79506V1.12036H10.2587C5.3489 1.12036 1.28564 7.02398 1.28564 14.277C1.28564 18.0722 2.38611 21.4457 4.07913 23.8914C5.6875 26.0842 7.88844 27.518 10.2587 27.518H12.8829V26.9276C16.6922 25.1565 19.3163 20.2649 19.3163 14.3613Z" fill="#F8B828"/>
<path d="M13.0522 27.6024H10.2587C7.88843 27.6024 5.6875 26.253 3.99448 23.8072C2.2168 21.2771 1.20099 17.9036 1.20099 14.1927C1.20099 6.85538 5.3489 0.867432 10.3433 0.867432H13.1368V1.45779C14.5759 2.21683 15.9303 3.31321 16.9461 4.91562C18.5545 7.44574 19.4856 10.6506 19.4856 14.1084C19.4856 19.9277 16.9461 24.9879 13.2215 26.759L13.0522 27.6024ZM10.3433 1.20478C5.5182 1.20478 1.53959 7.02406 1.53959 14.2771C1.53959 17.9036 2.55541 21.2771 4.24843 23.7229C5.8568 26.0843 8.05773 27.3494 10.3433 27.3494H12.8828V26.759H12.9675C14.7452 25.9156 16.2689 24.3132 17.454 22.1204C18.6391 19.9277 19.2317 17.0602 19.2317 14.2771C19.2317 10.9036 18.3005 7.69876 16.7768 5.25297C15.5917 3.65056 14.2373 2.46984 12.8828 1.87948H12.7982V1.20478H10.3433Z" fill="#B28445"/>
<path d="M19.5703 5.16866C17.9619 2.63854 15.6763 1.03613 13.1368 1.03613C8.14239 1.12047 4.07913 7.02409 4.07913 14.1928C4.07913 17.9879 5.1796 21.3614 6.87262 23.8072C8.48099 26 10.6819 27.4337 13.0522 27.4337C17.9619 27.4337 22.0252 21.5301 22.0252 14.2771C21.9405 10.8193 21.094 7.61445 19.5703 5.16866ZM13.5601 24.2289C13.3908 24.2289 13.3061 24.2289 13.1368 24.2289C11.3591 24.2289 9.75076 23.1325 8.48099 21.5301C7.21122 19.8434 6.36471 17.3976 6.36471 14.6988C6.36471 14.5301 6.36471 14.4458 6.36471 14.2771C6.36471 8.87951 9.41216 4.32529 13.0522 4.32529C13.2215 4.32529 13.3061 4.32529 13.4754 4.32529C16.9461 4.66264 19.7396 8.96384 19.7396 14.2771C19.7396 14.4458 19.7396 14.5301 19.7396 14.6988C19.6549 19.8434 16.9461 23.8916 13.5601 24.2289Z" fill="#F6E245"/>
<path d="M13.0522 27.6024C10.6819 27.6024 8.48099 26.253 6.78796 23.8072C5.01029 21.2771 3.99448 17.9036 3.99448 14.1927C3.99448 6.85538 8.05773 0.867432 13.0522 0.867432C15.5917 0.867432 17.8773 2.30117 19.5703 4.99996C21.1787 7.53008 22.1098 10.7349 22.1098 14.1927C22.0252 21.6144 17.9619 27.6024 13.0522 27.6024ZM13.0522 1.20478C8.22704 1.20478 4.24843 7.02406 4.24843 14.2771C4.24843 17.9036 5.26424 21.2771 6.95727 23.7229C8.56564 26.0843 10.7666 27.3494 13.0522 27.3494C17.8773 27.3494 21.8559 21.5301 21.8559 14.2771C21.8559 10.9036 20.9247 7.69876 19.401 5.25297C17.708 2.63852 15.507 1.20478 13.0522 1.20478ZM13.0522 24.3976C11.2745 24.3976 9.58145 23.3855 8.31169 21.6144C6.95727 19.8433 6.19541 17.3132 6.19541 14.6988C6.19541 14.5301 6.19541 14.4457 6.19541 14.2771C6.19541 8.71081 9.24285 4.15659 13.1368 4.15659C13.3061 4.15659 13.3908 4.15659 13.5601 4.15659C17.2001 4.49394 19.9935 8.87948 19.9935 14.2771C19.9935 14.4457 19.9935 14.5301 19.9935 14.6988C19.8242 19.8433 17.1154 24.0602 13.5601 24.3132C13.3061 24.3976 13.2215 24.3976 13.0522 24.3976ZM13.0522 4.49394C9.41215 4.49394 6.44936 8.87948 6.44936 14.3614C6.44936 14.5301 6.44936 14.6144 6.44936 14.7831C6.53401 17.3976 7.29587 19.8433 8.56564 21.4457C9.83541 23.1325 11.4438 24.1445 13.0522 24.1445C13.2215 24.1445 13.3061 24.1445 13.4754 24.1445C16.8615 23.8072 19.4856 19.759 19.6549 14.7831C19.6549 14.6144 19.6549 14.5301 19.6549 14.3614C19.6549 9.21683 16.9461 4.91562 13.4754 4.49394C13.3061 4.49394 13.0522 4.49394 13.0522 4.49394Z" fill="#B28445"/>
<path d="M13.5601 4.40967C13.3908 4.40967 13.3061 4.40967 13.1368 4.40967C13.0522 4.40967 12.8829 4.40967 12.7982 4.40967H12.8829C16.3536 4.74702 19.1471 9.04822 19.1471 14.3615C19.1471 14.5301 19.1471 14.6145 19.1471 14.7832C18.9778 19.9277 16.2689 23.9759 12.8829 24.2289H12.7982C12.8829 24.2289 13.0522 24.2289 13.1368 24.2289C13.3061 24.2289 13.3908 24.2289 13.5601 24.2289C16.9461 23.8916 19.7396 19.7591 19.8243 14.7832C19.8243 14.6145 19.8243 14.5301 19.8243 14.3615C19.8243 9.04822 17.0308 4.74702 13.5601 4.40967Z" fill="#F8B218"/>
<path d="M13.0522 24.3976C12.9675 24.3976 12.7982 24.3976 12.7136 24.3976V24.1446H12.7982C16.1843 23.8072 18.8084 19.759 18.9777 14.7831C18.9777 14.6145 18.9777 14.5301 18.9777 14.3614C18.9777 9.21687 16.2689 4.91567 12.7982 4.49398H12.7136V4.24097C12.9675 4.24097 13.2215 4.24097 13.6447 4.24097C17.2847 4.57832 20.0782 8.96386 20.0782 14.3614C20.0782 14.5301 20.0782 14.6145 20.0782 14.7831C19.9089 19.9277 17.2001 24.1446 13.6447 24.3976C13.3061 24.3976 13.2215 24.3976 13.0522 24.3976ZM14.4066 4.74699C17.2001 6.09639 19.147 9.89157 19.147 14.3614C19.147 14.5301 19.147 14.6145 19.147 14.7831C19.0624 19.0843 17.0308 22.6265 14.4066 23.9759C17.2847 23.0482 19.5703 19.3374 19.5703 14.7831C19.5703 14.6145 19.5703 14.5301 19.5703 14.3614C19.655 9.72289 17.454 5.6747 14.4066 4.74699Z" fill="#B28445"/>
<path d="M16.8614 0.530029H13.6447C11.0205 0.530029 8.56561 1.96376 6.78794 4.66256C5.01026 7.19268 4.0791 10.6505 4.0791 14.277C4.0791 18.0722 5.09492 21.53 6.95724 24.1445C8.73491 26.6746 11.1051 28.024 13.56 28.024H16.7768C19.147 27.8553 21.3479 26.4216 22.9563 23.8915C24.734 21.277 25.6651 17.9035 25.6651 14.277C25.6651 10.8192 24.734 7.36135 23.041 4.83123C21.5172 2.30111 19.3163 0.867379 16.8614 0.530029Z" fill="#875F27"/>
<path d="M22.4484 14.3613C22.4484 10.7348 21.4326 7.69868 19.9089 5.25289C18.8084 3.65048 17.5386 2.38542 16.0149 1.79506V1.12036H13.3907C8.48095 1.12036 4.41769 7.02398 4.41769 14.277C4.41769 18.0722 5.51816 21.4457 7.21118 23.8914C8.81955 26.0842 11.0205 27.518 13.3907 27.518H16.0149V26.9276C19.8242 25.1565 22.4484 20.2649 22.4484 14.3613Z" fill="#F8B828"/>
<path d="M16.3535 27.6024H13.56C11.1898 27.6024 8.98886 26.253 7.29584 23.8072C5.51816 21.2771 4.50235 17.8192 4.50235 14.1927C4.50235 6.85538 8.56561 0.867432 13.56 0.867432H16.3535V1.45779C17.7926 2.21683 19.147 3.31321 20.1628 4.91562C21.7712 7.44574 22.7024 10.6506 22.7024 14.1084C22.7024 16.9759 22.1098 19.759 20.9247 22.0361C19.7396 24.2289 18.2158 25.9156 16.4382 26.759L16.3535 27.6024ZM13.56 1.20478C8.73491 1.20478 4.7563 7.02406 4.7563 14.2771C4.7563 17.9036 5.77212 21.2771 7.46514 23.7229C9.07351 26.0843 11.2744 27.3494 13.56 27.3494H16.0996V26.759H16.1842C17.9619 25.9156 19.4856 24.3132 20.6707 22.1204C21.8558 19.9277 22.4484 17.0602 22.4484 14.2771C22.4484 10.9036 21.5172 7.69876 19.9935 5.25297C18.8084 3.65056 17.454 2.46984 16.0996 1.87948H16.0149V1.20478H13.56Z" fill="#B28445"/>
<path d="M22.6177 5.16866C21.0093 2.63854 18.7237 1.03613 16.1842 1.03613C11.2744 1.03613 7.21118 6.93975 7.21118 14.1928C7.21118 17.9879 8.31165 21.3614 10.0047 23.8072C11.613 26 13.814 27.4337 16.1842 27.4337C21.094 27.4337 25.1572 21.5301 25.1572 14.2771C25.2419 10.8193 24.1414 7.61445 22.6177 5.16866ZM16.6921 24.2289C16.5228 24.2289 16.4382 24.2289 16.2689 24.2289C14.4912 24.2289 12.8828 23.1325 11.613 21.5301C10.3433 19.8434 9.49676 17.3976 9.49676 14.6988C9.49676 14.5301 9.49676 14.4458 9.49676 14.2771C9.49676 8.87951 12.5442 4.32529 16.1842 4.32529C16.3535 4.32529 16.4382 4.32529 16.6075 4.32529C20.0782 4.66264 22.8716 8.96384 22.8716 14.2771C22.8716 14.4458 22.8716 14.5301 22.8716 14.6988C22.8716 19.8434 20.0782 23.8916 16.6921 24.2289Z" fill="#F6E245"/>
<path d="M16.1842 27.6024C13.814 27.6024 11.613 26.253 9.92001 23.8072C8.14234 21.2771 7.12653 17.8192 7.12653 14.1927C7.12653 6.85538 11.1898 0.867432 16.1842 0.867432C18.7237 0.867432 21.0093 2.30117 22.7023 4.99996C24.3107 7.53008 25.2419 10.7349 25.2419 14.1927C25.2419 21.6144 21.1786 27.6024 16.1842 27.6024ZM16.1842 1.20478C11.3591 1.20478 7.38048 7.02406 7.38048 14.2771C7.38048 17.9036 8.39629 21.2771 10.0893 23.7229C11.6977 26.0843 13.8986 27.3494 16.1842 27.3494C21.0093 27.3494 24.9879 21.5301 24.9879 14.2771C24.9879 10.9036 24.0568 7.69876 22.533 5.25297C20.84 2.63852 18.6391 1.20478 16.1842 1.20478ZM16.1842 24.3976C14.4065 24.3976 12.7135 23.3855 11.4437 21.6144C10.0893 19.8433 9.32746 17.3132 9.32746 14.6988C9.32746 14.5301 9.32746 14.4457 9.32746 14.2771C9.32746 8.71081 12.3749 4.15659 16.2689 4.15659C16.4382 4.15659 16.5228 4.15659 16.6921 4.15659C20.3321 4.49394 23.1256 8.87948 23.1256 14.2771C23.1256 14.4457 23.1256 14.5301 23.1256 14.6988C22.9563 19.8433 20.2475 24.0602 16.6921 24.3132C16.6075 24.3976 16.3535 24.3976 16.1842 24.3976ZM16.1842 4.49394C12.5442 4.49394 9.58141 8.87948 9.58141 14.3614C9.58141 14.5301 9.58141 14.6144 9.58141 14.7831C9.66606 17.3976 10.4279 19.8433 11.6977 21.4457C12.9675 23.1325 14.5758 24.1445 16.1842 24.1445C16.3535 24.1445 16.4382 24.1445 16.6075 24.1445C19.9935 23.8072 22.6177 19.759 22.787 14.7831C22.787 14.6144 22.787 14.5301 22.787 14.3614C22.787 9.21683 20.0782 4.91562 16.6075 4.49394C16.5228 4.49394 16.3535 4.49394 16.1842 4.49394Z" fill="#B28445"/>
<path d="M16.6921 4.40967C16.5228 4.40967 16.4382 4.40967 16.2689 4.40967C16.1842 4.40967 16.0149 4.40967 15.9303 4.40967H16.0149C19.4856 4.74702 22.2791 9.04822 22.2791 14.3615C22.2791 14.5301 22.2791 14.6145 22.2791 14.7832C22.1098 19.9277 19.401 23.9759 16.0149 24.2289H15.9303C16.0149 24.2289 16.1842 24.2289 16.2689 24.2289C16.4382 24.2289 16.5228 24.2289 16.6921 24.2289C20.0782 23.8916 22.8717 19.7591 22.9563 14.7832C22.9563 14.6145 22.9563 14.5301 22.9563 14.3615C22.9563 9.04822 20.1628 4.74702 16.6921 4.40967Z" fill="#F8B218"/>
<path d="M16.1842 24.3976C16.0996 24.3976 15.9303 24.3976 15.8456 24.3976V24.1446H15.9303C19.2317 23.8072 21.9405 19.759 22.0251 14.7831C22.0251 14.6145 22.0251 14.5301 22.0251 14.3614C22.0251 9.21687 19.3163 4.91567 15.8456 4.49398H15.761V4.24097C16.0149 4.24097 16.2689 4.24097 16.6921 4.24097C20.3321 4.57832 23.1256 8.96386 23.1256 14.3614C23.1256 14.5301 23.1256 14.6145 23.1256 14.7831C22.9563 19.9277 20.2475 24.1446 16.6921 24.3976C16.6075 24.3976 16.3535 24.3976 16.1842 24.3976ZM17.5386 4.74699C20.3321 6.09639 22.2791 9.89157 22.2791 14.3614C22.2791 14.5301 22.2791 14.6145 22.2791 14.7831C22.1944 19.0843 20.1628 22.6265 17.5386 23.9759C20.4168 23.0482 22.7024 19.3374 22.7024 14.7831C22.7024 14.6145 22.7024 14.5301 22.7024 14.3614C22.8717 9.72289 20.5861 5.6747 17.5386 4.74699Z" fill="#B28445"/>
<path d="M19.8242 0.530029H16.6075C13.9833 0.530029 11.5284 1.96376 9.75074 4.66256C7.97306 7.27702 7.0419 10.6505 7.0419 14.277C7.0419 18.0722 8.05771 21.53 9.92004 24.1445C11.6977 26.6746 14.0679 28.024 16.5228 28.024H19.7396C22.1098 27.8553 24.3107 26.4216 25.9191 23.8915C27.6968 21.277 28.6279 17.9035 28.6279 14.277C28.6279 10.8192 27.6968 7.36135 26.0038 4.83123C24.5647 2.30111 22.2791 0.867379 19.8242 0.530029Z" fill="#875F27"/>
<path d="M25.4958 14.3613C25.4958 10.7348 24.48 7.69868 22.9563 5.25289C21.8558 3.65048 20.5861 2.38542 19.0624 1.79506V1.12036H16.4382C11.5284 1.12036 7.46515 7.02398 7.46515 14.277C7.46515 18.0722 8.56561 21.4457 10.2586 23.8914C11.867 26.0842 14.0679 27.518 16.4382 27.518H19.147V26.9276C22.8717 25.1565 25.4958 20.2649 25.4958 14.3613Z" fill="#F8B828"/>
<path d="M19.3163 27.6024H16.5228C14.1526 27.6024 11.9517 26.253 10.2586 23.8072C8.48096 21.2771 7.46515 17.8192 7.46515 14.1927C7.46515 6.85538 11.6131 0.867432 16.5228 0.867432H19.3163V1.45779C20.7554 2.21683 22.1098 3.31321 23.1256 4.91562C24.734 7.44574 25.6651 10.6506 25.6651 14.1084C25.6651 19.9277 23.1256 24.9879 19.401 26.759L19.3163 27.6024ZM16.6075 1.20478C11.7824 1.20478 7.80375 7.02406 7.80375 14.2771C7.80375 17.9036 8.81957 21.2771 10.5126 23.7229C12.121 26.0843 14.3219 27.3494 16.6075 27.3494H19.147V26.759H19.2317C21.0093 25.9156 22.5331 24.3132 23.7182 22.1204C24.9033 19.9277 25.4958 17.0602 25.4958 14.2771C25.4958 10.9036 24.5647 7.69876 23.041 5.25297C21.9405 3.65056 20.5861 2.46984 19.147 1.87948H19.0624V1.20478H16.6075Z" fill="#B28445"/>
<path d="M25.6651 5.16842C24.0568 2.6383 21.7712 1.03589 19.2317 1.03589C14.3219 1.03589 10.2586 6.9395 10.2586 14.1925C10.2586 17.9877 11.3591 21.3612 13.0521 23.807C14.6605 25.9997 16.8614 27.4335 19.2317 27.4335C24.1414 27.4335 28.2047 21.5299 28.2047 14.2769C28.2047 10.819 27.2735 7.6142 25.6651 5.16842ZM19.6549 24.2287C19.4856 24.2287 19.401 24.2287 19.2317 24.2287C17.454 24.2287 15.8456 23.1323 14.5758 21.5299C13.3061 19.8431 12.4596 17.3973 12.4596 14.6985C12.4596 14.5299 12.4596 14.4455 12.4596 14.2769C12.4596 8.87926 15.507 4.32505 19.147 4.32505C19.3163 4.32505 19.401 4.32505 19.5703 4.32505C23.041 4.6624 25.8345 8.9636 25.8345 14.2769C25.8345 14.4455 25.8345 14.5299 25.8345 14.6985C25.8345 19.8431 23.1256 23.8913 19.6549 24.2287Z" fill="#F6E245"/>
<path d="M19.3163 27.6023C16.9461 27.6023 14.7451 26.2529 13.0521 23.8071C11.2745 21.277 10.2586 17.8191 10.2586 14.1926C10.2586 6.93961 14.2372 0.95166 19.3163 0.95166C21.8558 0.95166 24.1414 2.38539 25.8345 5.08419C27.4428 7.61431 28.374 10.8191 28.374 14.277C28.2893 21.6143 24.3107 27.6023 19.3163 27.6023ZM19.3163 1.20467C14.4912 1.20467 10.5126 7.02395 10.5126 14.277C10.5126 17.9035 11.5284 21.277 13.2214 23.7227C14.8298 26.0842 17.0307 27.3493 19.3163 27.3493C24.1414 27.3493 28.12 21.53 28.12 14.277C28.12 10.9035 27.1889 7.69865 25.6651 5.25287C23.8875 2.63841 21.6019 1.20467 19.3163 1.20467ZM19.3163 24.3974C17.5386 24.3974 15.8456 23.3854 14.5758 21.6143C13.2214 19.8432 12.4596 17.3131 12.4596 14.6986C12.4596 14.53 12.4596 14.4456 12.4596 14.277C12.4596 8.7107 15.507 4.15648 19.401 4.15648C19.5703 4.15648 19.6549 4.15648 19.8242 4.15648C23.4642 4.49383 26.2577 8.87937 26.2577 14.277C26.2577 14.4456 26.2577 14.53 26.2577 14.6986C26.0884 19.8432 23.3796 24.0601 19.8242 24.3131C19.5703 24.3974 19.3163 24.3974 19.3163 24.3974ZM19.3163 4.49383C15.6763 4.49383 12.7135 8.87937 12.7135 14.3613C12.7135 14.53 12.7135 14.6143 12.7135 14.783C12.7982 17.3974 13.56 19.8432 14.8298 21.4456C16.0996 23.1324 17.7079 24.1444 19.3163 24.1444C19.4856 24.1444 19.5703 24.1444 19.7396 24.1444C23.1256 23.8071 25.7498 19.7589 25.9191 14.783C25.9191 14.6143 25.9191 14.53 25.9191 14.3613C25.9191 9.21672 23.2103 4.91552 19.7396 4.49383C19.5703 4.49383 19.3163 4.49383 19.3163 4.49383Z" fill="#B28445"/>
<path d="M19.6549 4.40942C19.4856 4.40942 19.401 4.40942 19.2317 4.40942C19.147 4.40942 18.9777 4.40942 18.8931 4.40942H18.9777C22.4484 4.74677 25.2419 9.04798 25.2419 14.3612C25.2419 14.5299 25.2419 14.6142 25.2419 14.7829C25.0726 19.9275 22.3638 23.9757 18.9777 24.2287H18.8931C18.9777 24.2287 19.147 24.2287 19.2317 24.2287C19.401 24.2287 19.4856 24.2287 19.6549 24.2287C23.041 23.8914 25.8345 19.7588 25.9191 14.7829C25.9191 14.6142 25.9191 14.5299 25.9191 14.3612C26.0038 9.04798 23.2103 4.74677 19.6549 4.40942Z" fill="#F8B218"/>
<path d="M19.3163 24.3974C19.2317 24.3974 19.0624 24.3974 18.9777 24.3974V24.1443H19.0624C22.4484 23.807 25.0726 19.7588 25.2419 14.7829C25.2419 14.6142 25.2419 14.5299 25.2419 14.3612C25.2419 9.21663 22.5331 4.91542 19.0624 4.49373H18.9777V4.24072C19.2317 4.24072 19.4856 4.24072 19.9089 4.24072C23.5489 4.57807 26.3424 8.96361 26.3424 14.3612C26.3424 14.5299 26.3424 14.6142 26.3424 14.7829C26.0884 19.9275 23.3796 24.06 19.8242 24.3974C19.5703 24.3974 19.3163 24.3974 19.3163 24.3974ZM20.5861 4.74675C23.3796 6.09614 25.3266 9.89132 25.3266 14.3612C25.3266 14.5299 25.3266 14.6142 25.3266 14.7829C25.2419 19.0841 23.2103 22.6263 20.5861 23.9757C23.4642 23.048 25.7498 19.3371 25.7498 14.7829C25.7498 14.6142 25.7498 14.5299 25.7498 14.3612C25.8345 9.72265 23.6335 5.67446 20.5861 4.74675Z" fill="#B28445"/>
<path d="M17.2847 17.1445V20.3493H16.3535V19L17.2847 17.1445Z" fill="#F6E245"/>
<path d="M18.3852 15.0361L18.8084 15.7952V15.8795V20.3494H17.8773V15.9638L18.3852 15.0361Z" fill="#F6E245"/>
<path d="M20.2475 15.3733V20.3492H19.3163V17.313L19.5703 17.1444L20.1628 15.795L20.2475 15.3733Z" fill="#F6E245"/>
<path d="M21.8558 12.3372V20.3492H20.9247V14.1926L21.8558 12.3372Z" fill="#F6E245"/>
<path d="M19.3163 15.7107H19.0624L18.3852 14.3613H18.8084L19.3163 15.7107Z" fill="#875F27"/>
<path d="M16.3535 18.9998H15.9303V20.4335H16.3535V18.9998Z" fill="#875F27"/>
<path d="M16.3535 19H15.9303L16.8614 17.1445H17.2847L16.3535 19Z" fill="#875F27"/>
<path d="M17.9619 15.9636H17.5387V20.3492H17.9619V15.9636Z" fill="#875F27"/>
<path d="M17.8773 15.9636H17.5387L17.9619 15.0359H18.3852L17.8773 15.9636Z" fill="#875F27"/>
<path d="M20.1628 15.795H19.6549L19.9089 15.3733H20.2475L20.1628 15.795Z" fill="#875F27"/>
<path d="M19.5703 17.1443H19.0624L19.6549 15.7949H20.1628L19.5703 17.1443Z" fill="#875F27"/>
<path d="M19.3163 17.3132H19.0624V17.1445H19.5703L19.3163 17.3132Z" fill="#875F27"/>
<path d="M19.4856 17.313H19.0624V20.5178H19.4856V17.313Z" fill="#875F27"/>
<path d="M21.0093 14.1926H20.5861V20.3493H21.0093V14.1926Z" fill="#875F27"/>
<path d="M20.9247 14.1926H20.5861L21.5173 12.3372H21.8559L20.9247 14.1926Z" fill="#875F27"/>
<path d="M22.4484 10.4818H22.0252L21.8559 9.80713H22.2791L22.4484 10.4818Z" fill="#875F27"/>
<path d="M21.6019 8.45768H21.1787L20.9247 7.95166H21.348L21.6019 8.45768Z" fill="#875F27"/>
<path d="M19.3163 12.9276H19.0624L21.1787 8.45776H21.6019L19.3163 12.9276Z" fill="#875F27"/>
<path d="M18.8084 14.3612H18.3852L17.9619 13.5178H18.4698L18.8084 14.3612Z" fill="#875F27"/>
<path d="M17.7926 12.1686H17.3694L17.9619 10.9036H18.4698L17.7926 12.1686Z" fill="#875F27"/>
<path d="M15.5917 16.8913H15.0838L17.3694 12.1685H17.7926L15.5917 16.8913Z" fill="#875F27"/>
<path d="M16.1842 18.0721H15.761L15.0838 16.8914H15.5917L16.1842 18.0721Z" fill="#875F27"/>
<path d="M21.348 7.95166H22.4484V10.4818L22.2791 9.80708L20.0782 14.3613L19.3163 15.7107L18.8084 14.3613L18.4698 13.5179L16.1842 18.0721L15.5917 16.8914L17.7926 12.1685L18.4698 10.9035L19.0624 12.1685L19.3163 12.9276L21.6019 8.45768L21.348 7.95166Z" fill="#F6E245"/>
</svg>
